# xmcd CD database file
#
# Track frame offsets:
#	150
#	25652
#	49555
#	69960
#	89432
#	106192
#	132447
#	153175
#
# Disc length: 2372 seconds
#
# Revision: 0
# Processed by: cddbd v1.4PL0 Copyright (c) Steve Scherf et al.
# Submitted via: CDex 1.50Beta6
#
DISCID=58094208
DTITLE=Drophammer - Bring It Down
DYEAR=1997
DGENRE=Rhythmic Soul
TTITLE0=In Shock
TTITLE1=Gravity
TTITLE2=Walk With The Brave
TTITLE3=Someday
TTITLE4=Friends
TTITLE5=World Without A Sun
TTITLE6=Blame
TTITLE7=Drophammer
EXTD=YEAR: 1997
EXTT0=
EXTT1=
EXTT2=
EXTT3=
EXTT4=
EXTT5=
EXTT6=
EXTT7=
PLAYORDER=
